# xmcd
#
# Track frame offsets:
#	150
#	10897
#	22472
#	33032
#	43747
#	53847
#	65770
#	75940
#	87527
#	98292
#	109825
#	120800
#	133405
#	143220
#	154345
#	166752
#	176780
#	186537
#	196615
#	205057
#	214627
#	223770
#	233267
#	242080
#	251260
#	261122
#	269857
#	279660
#
# Disc length: 3875 seconds
#
# Revision: 3
# Processed by: cddbd v1.5.2PL0 Copyright (c) Steve Scherf et al.
# Submitted via: EasyCDDAExtractor 11.0.0.1
#
DISCID=900f211c
DTITLE=Flatt and Scruggs - Flatt and Scruggs 1959 - 1963
DYEAR=1992
DGENRE=Country
TTITLE0=I'm On My Way To Canaan's Land
TTITLE1=Angel Band
TTITLE2=When The Angels Carry Me Home
TTITLE3=I'll Never Be Lonesome Again
TTITLE4=Get On The Road to Glory
TTITLE5=Take Me In Your Lifeboat
TTITLE6=Bubbling In My Soul
TTITLE7=Heaven
TTITLE8=Joy Bells
TTITLE9=Give Me My Flowers While I'm Living
TTITLE10=You Can Feel It In Your Soul
TTITLE11=Give Mother My Crown
TTITLE12=The Great Historical Bum
TTITLE13=I've Lost You Forever
TTITLE14=Polka On A Banjo
TTITLE15=All I Want Is You
TTITLE16=Shuckin' The Corn (instrumental)
TTITLE17=Home Sweet Home (instrumental)
TTITLE18=Fire Ball Mail (instrumental)
TTITLE19=Cripple Creek (instrumental)
TTITLE20=Reuben (instrumental)
TTITLE21=John Henry (instrumental)
TTITLE22=Cumberland Gap (instrumental)
TTITLE23=Lonesome Road Blues (instrumental)
TTITLE24=Sally Goodwin (instrumental)
TTITLE25=Little Darlin', Pal Of Mine (instrumental)
TTITLE26=Sally Ann (instrumental)
TTITLE27=Bugle Call Rag (instrumental)
EXTD=
EXTT0=
EXTT1=
EXTT2=
EXTT3=
EXTT4=
EXTT5=
EXTT6=
EXTT7=
EXTT8=
EXTT9=
EXTT10=
EXTT11=
EXTT12=
EXTT13=
EXTT14=
EXTT15=
EXTT16=
EXTT17=
EXTT18=
EXTT19=
EXTT20=
EXTT21=
EXTT22=
EXTT23=
EXTT24=
EXTT25=
EXTT26=
EXTT27=
PLAYORDER=
